<?xml version="1.0" encoding="UTF-8"?>
<svg id="Layer_2" data-name="Layer 2" xmlns="http://www.w3.org/2000/svg" viewBox="0 0 447.64 237.1">
  <defs>
    <style>
      .cls-1 {
        fill: #9fce6b;
      }

      .cls-2 {
        fill: #e9ae7a;
      }

      .cls-3 {
        fill: #ec5765;
      }

      .cls-4 {
        fill: #f3be8d;
      }

      .cls-5 {
        fill: #975454;
      }

      .cls-6 {
        fill: #fecd58;
      }
    </style>
  </defs>
  <g id="Layer_1-2" data-name="Layer 1">
    <g>
      <path class="cls-4" d="M214.5,232.45c0,2.58-2.08,4.66-4.66,4.66H14.08c-2.58,0-4.66-2.08-4.66-4.66v-23.31h205.07v23.31Z"/>
      <path class="cls-4" d="M111.86,60c-56.62,0-102.53,33.39-102.53,74.57h205.07c0-41.19-45.91-74.57-102.54-74.57Z"/>
      <path class="cls-5" d="M9.43,209.14c-5.14,0-9.32-4.18-9.32-9.32s4.18-9.32,9.32-9.32h205.07c5.14,0,9.32,4.18,9.32,9.32s-4.18,9.32-9.32,9.32H9.43Z"/>
      <path class="cls-5" d="M9.32,171.86c-5.14,0-9.32-4.18-9.32-9.32s4.18-9.33,9.32-9.33h205.07c5.14,0,9.32,4.18,9.32,9.33s-4.18,9.32-9.32,9.32H9.32Z"/>
      <path class="cls-3" d="M111.97,185.85c0,2.57-2.09,4.66-4.67,4.66H9.43c-2.58,0-4.66-2.09-4.66-4.66v-9.33c0-2.57,2.08-4.66,4.66-4.66h97.87c2.58,0,4.67,2.09,4.67,4.66v9.33Z"/>
      <path class="cls-3" d="M219.16,185.85c0,2.57-2.09,4.66-4.67,4.66h-97.87c-2.58,0-4.66-2.09-4.66-4.66v-9.33c0-2.57,2.08-4.66,4.66-4.66h97.87c2.58,0,4.67,2.09,4.67,4.66v9.33Z"/>
      <polygon class="cls-6" points="111.97 200.57 18.75 171.86 204.97 171.86 111.97 200.57"/>
      <path class="cls-2" d="M79.34,87.96c0,2.58-2.08,4.66-4.66,4.66s-4.66-2.09-4.66-4.66,2.09-4.66,4.66-4.66c2.57,0,4.66,2.08,4.66,4.66Z"/>
      <path class="cls-2" d="M116.62,87.96c0,2.58-2.09,4.66-4.66,4.66s-4.67-2.09-4.67-4.66,2.09-4.66,4.67-4.66c2.57,0,4.66,2.08,4.66,4.66Z"/>
      <path class="cls-2" d="M153.91,87.96c0,2.58-2.09,4.66-4.66,4.66s-4.66-2.09-4.66-4.66,2.09-4.66,4.66-4.66c2.57,0,4.66,2.08,4.66,4.66Z"/>
      <path class="cls-2" d="M60.59,111.27c0,2.58-2.08,4.66-4.66,4.66s-4.66-2.08-4.66-4.66,2.08-4.66,4.66-4.66,4.66,2.08,4.66,4.66Z"/>
      <path class="cls-2" d="M97.87,111.27c0,2.58-2.08,4.66-4.66,4.66s-4.67-2.08-4.67-4.66,2.09-4.66,4.67-4.66c2.57,0,4.66,2.08,4.66,4.66Z"/>
      <path class="cls-2" d="M135.16,111.27c0,2.58-2.09,4.66-4.66,4.66s-4.67-2.08-4.67-4.66,2.09-4.66,4.67-4.66c2.57,0,4.66,2.08,4.66,4.66Z"/>
      <path class="cls-2" d="M172.55,111.27c0,2.58-2.08,4.66-4.66,4.66s-4.67-2.08-4.67-4.66,2.09-4.66,4.67-4.66,4.66,2.08,4.66,4.66Z"/>
      <path class="cls-1" d="M221.49,139.09c0-2.57-2.09-4.66-4.67-4.66-.63,0-1.23.13-1.78.35h0s-.03.01-.05.02l-21.47,8.86-21.48-8.86s-.03,0-.04-.01h-.01c-.55-.23-1.15-.36-1.78-.36s-1.23.13-1.78.35h-.01s-.03.01-.04.02l-21.47,8.86-21.48-8.86s-.02,0-.03-.01h-.01c-.55-.23-1.15-.36-1.78-.36s-1.22.13-1.78.35h-.01s-.03.01-.03.02l-21.48,8.86-21.48-8.86s-.03,0-.04-.01h-.01c-.55-.23-1.15-.36-1.78-.36s-1.23.13-1.78.35h-.01s-.03.01-.04.02l-21.48,8.86-21.48-8.86s-.02,0-.03-.01h-.01c-.55-.23-1.15-.36-1.78-.36s-1.23.13-1.78.35h-.01s-.03.01-.03.02l-23.25,9.59h0c-1.69.7-2.89,2.36-2.89,4.31,0,2.58,2.09,4.66,4.66,4.66.63,0,1.23-.12,1.78-.35h.01s.03-.01.04-.02l21.47-8.86,21.48,8.86s.03,0,.04.01h.01c.55.23,1.15.36,1.78.36s1.23-.12,1.78-.35h.01s.03-.01.04-.02l21.48-8.86,21.48,8.86s.03,0,.04.01h.01c.55.23,1.15.36,1.78.36s1.23-.12,1.78-.35h.01s.03-.01.04-.02l21.47-8.86,21.48,8.86s.03,0,.04.01h.01c.55.23,1.15.36,1.78.36s1.23-.12,1.78-.35h.01s.03-.01.04-.02l21.47-8.86,21.48,8.86s.02,0,.03.01h.01c.55.23,1.15.36,1.78.36s1.23-.12,1.78-.35h0s.03-.01.05-.02l23.25-9.59h0c1.69-.7,2.88-2.37,2.88-4.31Z"/>
    </g>
    <path class="cls-4" d="M438.32,232.45c0,2.58-2.08,4.66-4.66,4.66h-195.75c-2.58,0-4.66-2.08-4.66-4.66v-23.31h205.07v23.31Z"/>
    <path class="cls-5" d="M233.24,200.6c-5.14,0-9.32-4.18-9.32-9.32s4.18-9.32,9.32-9.32h205.07c5.14,0,9.32,4.18,9.32,9.32s-4.18,9.32-9.32,9.32h-205.07Z"/>
    <path class="cls-5" d="M233.14,135.59c-5.14,0-9.32-4.18-9.32-9.32s4.18-9.33,9.32-9.33h205.07c5.14,0,9.32,4.18,9.32,9.33s-4.18,9.32-9.32,9.32h-205.07Z"/>
    <g>
      <path class="cls-3" d="M335.78,161.37c0,2.57-2.09,4.66-4.67,4.66h-97.87c-2.58,0-4.66-2.09-4.66-4.66v-9.33c0-2.57,2.08-4.66,4.66-4.66h97.87c2.58,0,4.67,2.09,4.67,4.66v9.33Z"/>
      <path class="cls-3" d="M442.98,161.37c0,2.57-2.09,4.66-4.67,4.66h-97.87c-2.58,0-4.66-2.09-4.66-4.66v-9.33c0-2.57,2.08-4.66,4.66-4.66h97.87c2.58,0,4.67,2.09,4.67,4.66v9.33Z"/>
      <polygon class="cls-6" points="335.78 176.09 242.57 147.38 428.79 147.38 335.78 176.09"/>
    </g>
    <g>
      <path class="cls-4" d="M335.67,0c-56.62,0-102.53,33.39-102.53,74.57h205.07c0-41.19-45.91-74.57-102.54-74.57Z"/>
      <path class="cls-2" d="M303.15,27.96c0,2.58-2.08,4.66-4.66,4.66s-4.66-2.09-4.66-4.66,2.09-4.66,4.66-4.66c2.57,0,4.66,2.08,4.66,4.66Z"/>
      <path class="cls-2" d="M340.44,27.96c0,2.58-2.09,4.66-4.66,4.66s-4.67-2.09-4.67-4.66,2.09-4.66,4.67-4.66c2.57,0,4.66,2.08,4.66,4.66Z"/>
      <path class="cls-2" d="M377.73,27.96c0,2.58-2.09,4.66-4.66,4.66s-4.66-2.09-4.66-4.66,2.09-4.66,4.66-4.66c2.57,0,4.66,2.08,4.66,4.66Z"/>
      <path class="cls-2" d="M284.4,51.27c0,2.58-2.08,4.66-4.66,4.66s-4.66-2.08-4.66-4.66,2.08-4.66,4.66-4.66,4.66,2.08,4.66,4.66Z"/>
      <path class="cls-2" d="M321.69,51.27c0,2.58-2.08,4.66-4.66,4.66s-4.67-2.08-4.67-4.66,2.09-4.66,4.67-4.66c2.57,0,4.66,2.08,4.66,4.66Z"/>
      <path class="cls-2" d="M358.98,51.27c0,2.58-2.09,4.66-4.66,4.66s-4.67-2.08-4.67-4.66,2.09-4.66,4.67-4.66c2.57,0,4.66,2.08,4.66,4.66Z"/>
      <path class="cls-2" d="M396.37,51.27c0,2.58-2.08,4.66-4.66,4.66s-4.67-2.08-4.67-4.66,2.09-4.66,4.67-4.66,4.66,2.08,4.66,4.66Z"/>
    </g>
    <path class="cls-1" d="M445.31,91.81c0-2.57-2.09-4.66-4.67-4.66-.63,0-1.23.13-1.78.35h0s-.03.01-.05.02l-21.47,8.86-21.48-8.86s-.03,0-.04-.01h-.01c-.55-.23-1.15-.36-1.78-.36s-1.23.13-1.78.35h-.01s-.03.01-.04.02l-21.47,8.86-21.48-8.86s-.02,0-.03-.01h-.01c-.55-.23-1.15-.36-1.78-.36s-1.22.13-1.78.35h-.01s-.03.01-.03.02l-21.48,8.86-21.48-8.86s-.03,0-.04-.01h-.01c-.55-.23-1.15-.36-1.78-.36s-1.23.13-1.78.35h-.01s-.03.01-.04.02l-21.48,8.86-21.48-8.86s-.02,0-.03-.01h-.01c-.55-.23-1.15-.36-1.78-.36s-1.23.13-1.78.35h-.01s-.03.01-.03.02l-23.25,9.59h0c-1.69.7-2.89,2.36-2.89,4.31,0,2.58,2.09,4.66,4.66,4.66.63,0,1.23-.12,1.78-.35h.01s.03-.01.04-.02l21.47-8.86,21.48,8.86s.03,0,.04.01h.01c.55.23,1.15.36,1.78.36s1.23-.12,1.78-.35h.01s.03-.01.04-.02l21.48-8.86,21.48,8.86s.03,0,.04.01h.01c.55.23,1.15.36,1.78.36s1.23-.12,1.78-.35h.01s.03-.01.04-.02l21.47-8.86,21.48,8.86s.03,0,.04.01h.01c.55.23,1.15.36,1.78.36s1.23-.12,1.78-.35h.01s.03-.01.04-.02l21.47-8.86,21.48,8.86s.02,0,.03.01h.01c.55.23,1.15.36,1.78.36s1.23-.12,1.78-.35h0s.03-.01.05-.02l23.25-9.59h0c1.69-.7,2.88-2.37,2.88-4.31Z"/>
  </g>
</svg>